# xmcd CD database file
#
# Track frame offsets:
#	150
#	46400
#	94120
#	127012
#	146440
#	197952
#	233795
#	281037
#	299905
#
# Disc length: 4398 seconds
#
# Revision: 0
# Processed by: cddbd v1.4PL0 Copyright (c) Steve Scherf et al.
# Submitted via: CDex 1.50beta9
#
DISCID=93112c09
DTITLE=Eddie Palmieri - Recorded live at Sing Sing
DYEAR=1994
DGENRE=Salsa
TTITLE0=Pa la ocha tambo
TTITLE1=V.P. blues
TTITLE2=Muneca (new version)
TTITLE3=Recitacion: Jibaro/My pretty Nigger
TTITLE4=Azucar (part 2 and 3)
TTITLE5=Vamonos pal monte
TTITLE6=Somebody's son
TTITLE7=Recitacion: Un rifle oracion/A rifle, a prayer
TTITLE8=Mi mujer espiritual (My spiritual indian)
EXTD=YEAR: 1994
EXTT0=
EXTT1=
EXTT2=
EXTT3=
EXTT4=
EXTT5=
EXTT6=
EXTT7=
EXTT8=
PLAYORDER=
